<svg width="32" height="31" viewBox="0 0 32 31" fill="none" xmlns="http://www.w3.org/2000/svg">
<path d="M15.7942 28.1779C8.77088 28.1779 3.07733 22.4843 3.07733 15.461C3.07733 8.43763 8.77088 2.74408 15.7942 2.74408C22.8176 2.74408 28.5111 8.43763 28.5111 15.461C28.5034 22.4811 22.8144 28.1702 15.7942 28.1779ZM5.62071 15.6797C5.68088 21.2767 10.2511 25.7738 15.8483 25.7439C21.4456 25.7136 25.9672 21.1677 25.9672 15.5703C25.9672 9.97301 21.4456 5.42706 15.8483 5.39682C10.2511 5.36689 5.68088 9.86397 5.62071 15.461V15.6797ZM17.0659 21.8194H14.5225V16.7327H9.43578V14.1893H14.5225V9.10253H17.0659V14.1893H22.1527V16.7327H17.0659V21.8194Z" fill="#FAFAFA"/>
</svg>
