<svg width="32" height="32" viewBox="0 0 32 32" fill="none" xmlns="http://www.w3.org/2000/svg">
<path d="M15.7646 27.6698C14.9444 26.9424 14.0173 26.1857 13.0369 25.3808H13.0242C9.57152 22.5576 5.65852 19.3631 3.9303 15.5353C3.36251 14.3167 3.06161 12.9908 3.04773 11.6465C3.04394 9.80191 3.78376 8.03362 5.10001 6.74131C6.41625 5.44899 8.19782 4.74173 10.042 4.77938C11.5434 4.78176 13.0125 5.21568 14.2742 6.02946C14.8286 6.3893 15.3303 6.82459 15.7646 7.32276C16.2015 6.82654 16.7032 6.39152 17.2563 6.02946C18.5175 5.21552 19.9862 4.78157 21.4873 4.77938C23.3315 4.74173 25.113 5.44899 26.4293 6.74131C27.7455 8.03362 28.4854 9.80191 28.4816 11.6465C28.4686 12.993 28.1677 14.3211 27.599 15.5417C25.8708 19.3695 21.9591 22.5627 18.5064 25.3808L18.4937 25.3909C17.5119 26.1908 16.5862 26.9475 15.7659 27.68L15.7646 27.6698ZM10.042 7.32276C8.85747 7.30794 7.71494 7.7613 6.86281 8.58428C6.04179 9.39074 5.58293 10.4957 5.59102 11.6465C5.60553 12.6264 5.82744 13.592 6.24223 14.4798C7.05803 16.1314 8.15881 17.6261 9.49394 18.8951C10.7542 20.1668 12.2039 21.3978 13.4578 22.433C13.805 22.7191 14.1585 23.0078 14.512 23.2965L14.7346 23.4783C15.0741 23.7555 15.4251 24.0429 15.7646 24.3253L15.7812 24.31L15.7888 24.3036H15.7964L15.8079 24.2947H15.8142H15.8206L15.8435 24.2757L15.8956 24.2337L15.9045 24.2261L15.9185 24.2159H15.9262L15.9376 24.2057L16.782 23.5127L17.0033 23.3308C17.3606 23.0396 17.7141 22.7509 18.0613 22.4648C19.3152 21.4296 20.7662 20.1999 22.0265 18.9219C23.3618 17.6534 24.4626 16.1591 25.2782 14.5078C25.7005 13.6123 25.9255 12.6365 25.9382 11.6465C25.9435 10.4992 25.4848 9.39854 24.6665 8.59446C23.816 7.76775 22.6733 7.31066 21.4873 7.32276C20.04 7.31047 18.6564 7.91711 17.6849 8.98995L15.7646 11.2027L13.8444 8.98995C12.8729 7.91711 11.4893 7.31047 10.042 7.32276Z" fill="#7A8580"/>
</svg>
