<svg width="31" height="32" viewBox="0 0 31 32" fill="none" xmlns="http://www.w3.org/2000/svg">
<path d="M23.1225 18.768C21.7178 18.768 20.5791 17.6293 20.5791 16.2246C20.5791 14.8199 21.7178 13.6812 23.1225 13.6812C24.5272 13.6812 25.6659 14.8199 25.6659 16.2246C25.6659 16.8991 25.3979 17.5461 24.9209 18.023C24.444 18.5 23.797 18.768 23.1225 18.768ZM15.4924 18.768C14.0877 18.768 12.949 17.6293 12.949 16.2246C12.949 14.8199 14.0877 13.6812 15.4924 13.6812C16.897 13.6812 18.0357 14.8199 18.0357 16.2246C18.0357 16.8991 17.7678 17.5461 17.2908 18.023C16.8138 18.5 16.1669 18.768 15.4924 18.768ZM7.86221 18.768C6.45754 18.768 5.31883 17.6293 5.31883 16.2246C5.31883 14.8199 6.45754 13.6812 7.86221 13.6812C9.26688 13.6812 10.4056 14.8199 10.4056 16.2246C10.4056 16.8991 10.1376 17.5461 9.66065 18.023C9.18368 18.5 8.53676 18.768 7.86221 18.768Z" fill="#7A8580"/>
</svg>
